<svg width="23" height="25" viewBox="0 0 23 25" fill="none" xmlns="http://www.w3.org/2000/svg">
<path d="M8.98765 2.39884C8.98578 2.3372 8.9825 2.25026 8.97885 2.15346C8.96821 1.87122 8.95441 1.50513 8.96308 1.43774L9.89143 0.506782L9.87161 0.335528C9.87087 0.335614 9.87012 0.335701 9.86937 0.335789C9.76301 0.348284 9.52769 0.389061 9.30087 0.541484C9.06585 0.699423 8.8518 0.969757 8.7922 1.41486L8.79209 1.41575C8.78723 1.45357 8.7875 1.52447 8.7886 1.59486C8.78981 1.67193 8.7926 1.76785 8.79595 1.86751C8.79929 1.9668 8.80313 2.06865 8.80661 2.16099C8.81023 2.25673 8.81345 2.34224 8.81533 2.40407M8.98765 2.39884L8.81533 2.40393C8.81533 2.40398 8.81533 2.40402 8.81533 2.40407M8.98765 2.39884L8.81533 2.40407M8.98765 2.39884C8.99396 2.61243 8.99377 2.82663 8.99358 3.04098C8.99326 3.39758 8.99294 3.75459 9.02255 4.10991M8.81533 2.40407C8.8213 2.60612 8.82119 2.81554 8.82108 3.02814C8.82089 3.3912 8.8207 3.76351 8.85075 4.12417M11.106 1.41622C11.3508 2.6704 11.4292 3.93319 11.3426 5.17014C11.5447 6.22176 11.8904 7.26904 12.3468 8.21722C14.163 11.9884 17.6238 12.3547 21.3735 12.3203C21.9501 12.3116 22.429 12.7642 22.4591 13.3374C22.4893 13.9149 22.0601 14.4149 21.486 14.4666L11.106 1.41622ZM11.106 1.41622L11.2752 1.3833C11.2752 1.38326 11.2752 1.38323 11.2752 1.38319M11.106 1.41622L11.2752 1.38319M21.5019 14.6383C20.482 14.737 19.0495 15.1988 17.708 15.8577C16.3635 16.5182 15.1427 17.3609 14.5248 18.2019C14.4122 18.3552 14.3124 18.6369 14.2131 19.0143C14.1528 19.2437 14.0962 19.4933 14.0371 19.754C14 19.9178 13.9619 20.0859 13.9212 20.2561L13.9212 20.2563C13.7764 20.8593 13.617 21.4629 13.4446 21.98C13.2741 22.4912 13.0849 22.9375 12.8736 23.2123C12.8734 23.2126 12.8732 23.2129 12.873 23.2132L12.7364 23.108C12.6787 23.1856 11.9766 23.9786 11.7671 24.095L21.5019 14.6383ZM21.5019 14.6383C22.1692 14.5779 22.6662 13.9972 22.6313 13.3284L22.6313 13.3283C22.5963 12.6635 22.0412 12.1381 21.3713 12.1479C19.4984 12.1651 17.7229 12.081 16.1932 11.5335C14.6727 10.9894 13.3896 9.98517 12.5021 8.14242C12.0554 7.21442 11.7161 6.18934 11.5161 5.15956C11.6013 3.91447 11.5213 2.64428 11.2752 1.38319M21.5019 14.6383L11.2752 1.38319M3.18973 12.9278C6.72628 11.823 8.66044 8.73558 8.99361 5.25823C8.93009 4.87788 8.88203 4.50123 8.85075 4.12417M3.18973 12.9278L9.16737 5.252C9.10272 4.86842 9.05402 4.48919 9.02255 4.10991M3.18973 12.9278C2.84101 12.9834 2.49061 13.0439 2.1429 13.1218L2.14268 13.1218C2.10173 13.131 2.04957 13.1427 1.99071 13.1559C1.87234 13.1823 1.72686 13.2149 1.59093 13.2458C1.39451 13.2906 1.19777 13.3364 1.14256 13.3555L1.14256 13.3554L1.1396 13.3565C0.685458 13.5224 0.467426 13.821 0.372764 14.1044C0.280985 14.3791 0.30816 14.629 0.319477 14.7102L0.319473 14.7102L0.319651 14.7114C0.326251 14.7564 0.378366 15.0499 0.581146 15.32C0.792746 15.6019 1.16078 15.8459 1.7589 15.7756C2.46806 15.6932 3.13984 15.5548 3.77325 15.3687C3.85729 15.3583 3.94122 15.3471 4.02416 15.336L4.02639 15.3357C4.11507 15.3238 4.20261 15.3121 4.28998 15.3015L4.28998 15.3015L4.2916 15.3013C5.0638 15.1999 5.88872 15.107 6.66 15.1876C7.42786 15.2678 8.12744 15.5185 8.66289 16.0926C8.79333 16.2325 8.90791 16.4558 9.01294 16.7482C9.11692 17.0378 9.20573 17.378 9.29332 17.7396C9.61544 19.0707 9.77406 20.6242 9.83504 21.4187C9.83834 21.4619 9.83642 21.5557 9.83177 21.6949C9.83077 21.7249 9.82966 21.7565 9.82851 21.7894C9.82452 21.9036 9.81995 22.0341 9.81712 22.1697C9.80995 22.5137 9.81305 22.9148 9.87206 23.1875L3.18973 12.9278ZM8.85075 4.12417L9.02255 4.10991M8.85075 4.12417C8.85075 4.12419 8.85075 4.12421 8.85075 4.12423L9.02255 4.10991M0.490222 14.6864C0.470397 14.5442 0.39669 13.8115 1.19876 13.5184C1.27167 13.4933 1.73212 13.3903 2.02751 13.3243C2.08661 13.3111 2.13911 13.2993 2.18057 13.29C2.52709 13.2124 2.87747 13.1521 3.22916 13.0961L0.490222 14.6864ZM15.8713 14.0498C14.4728 14.8241 13.2128 15.7642 12.5104 16.7221C12.3549 16.9338 12.2131 17.2409 12.0826 17.594C12.0267 17.7452 11.9721 17.9071 11.9188 18.0766C11.8103 17.4982 11.6781 16.9184 11.5182 16.3986C11.2584 15.5517 10.9035 14.8293 10.4925 14.3879L10.4924 14.3878C9.79955 13.6452 8.95013 13.2002 8.03969 12.9536C9.05428 11.9947 9.85031 10.8454 10.4257 9.57595C11.7399 12.084 13.6404 13.3981 15.8713 14.0498Z" fill="#2C83B5" stroke="#2C83B5" stroke-width="0.344793"/>
</svg>
